<?xml version="1.0" standalone="no"?>
<!DOCTYPE svg PUBLIC "-//W3C//DTD SVG 20010904//EN"
 "http://www.w3.org/TR/2001/REC-SVG-20010904/DTD/svg10.dtd">
<svg version="1.0" xmlns="http://www.w3.org/2000/svg"
 width="512.000000pt" height="512.000000pt" viewBox="0 0 512.000000 512.000000"
 preserveAspectRatio="xMidYMid meet">
<metadata>
Created by potrace 1.14, written by Peter Selinger 2001-2017
</metadata>
<g transform="translate(0.000000,512.000000) scale(0.100000,-0.100000)"
fill="#000000" stroke="none">
<path d="M207 5106 c-127 -46 -207 -163 -207 -305 0 -60 41 -197 442 -1456
259 -813 450 -1397 460 -1407 25 -25 92 -24 117 1 11 11 25 37 30 58 71 260
350 1184 355 1173 3 -8 98 -409 211 -890 113 -481 212 -899 221 -927 16 -57
34 -73 84 -73 44 0 67 15 79 52 6 18 112 462 236 987 124 525 226 956 228 957
1 1 58 -216 126 -484 201 -786 217 -844 237 -859 10 -7 35 -13 56 -13 46 0 73
24 87 77 66 253 443 1668 444 1670 1 1 150 -805 330 -1790 181 -986 333 -1807
339 -1825 11 -38 34 -52 82 -52 48 0 72 26 85 92 6 29 205 1088 442 2353 472
2525 451 2394 399 2500 -33 68 -99 129 -166 154 -55 21 -56 21 -2367 21 -1920
-1 -2318 -3 -2350 -14z"/>
</g>
</svg>
